<?xml version="1.0" encoding="utf-8"?>
<!-- Svg Vector Icons : http://www.onlinewebfonts.com/icon -->
<!DOCTYPE svg PUBLIC "-//W3C//DTD SVG 1.1//EN" "http://www.w3.org/Graphics/SVG/1.1/DTD/svg11.dtd">
<svg version="1.1" xmlns="http://www.w3.org/2000/svg" xmlns:xlink="http://www.w3.org/1999/xlink" x="0px" y="0px" viewBox="0 0 256 256" enable-background="new 0 0 256 256" xml:space="preserve">
<metadata> Svg Vector Icons : http://www.onlinewebfonts.com/icon </metadata>
<g><g><g><path fill="#8c00ff" d="M23.9,25.4c-3.3,1.2-7.7,4.1-9.7,6.6c-0.9,1-2.2,3.2-2.9,4.8L10,39.7v67.1V174l1.6,3.3c2,4,6,8,10.1,9.9l2.9,1.4l57.7,0.2l57.7,0.1l0.3,1.9c2.6,16.2,10.7,28.1,23.9,35.2c7.8,4.2,15.2,5.9,24,5.4c6.5-0.4,12-1.8,17.5-4.4c14-7,23.7-20.5,25.6-35.7c0.4-2.7,0.5-2.8,2.2-3.4c4.6-1.4,10.1-7.2,11.7-12.6c1-3.2,1-4.5,0.9-69.4l-0.2-66.1l-1.6-3.4c-2-4.3-5.6-7.8-10.1-10l-3.4-1.7l-102.1-0.1C30.9,24.5,26.5,24.5,23.9,25.4z M233.2,30.5c3,1.6,5.3,3.9,6.9,6.9l1.2,2.3l0.2,66.4c0.2,74.2,0.4,69-3.5,73.4c-1.7,1.9-5.1,4.3-6.2,4.3c-0.2,0-0.3-0.8-0.3-1.7s-0.4-3.3-0.8-5.3c-3.6-17.1-16.9-30.9-34.2-35.5c-4.3-1.1-13-1.5-17.6-0.8c-14.2,2.3-26.9,11.5-33.5,24.2c-3.2,6.2-5.4,13.6-5.4,18.5v1.7l-56.9-0.2l-57-0.2l-2.8-1.3c-3.7-1.8-5.5-3.4-7.3-6.6l-1.5-2.7l-0.2-66.3c-0.2-74.2-0.4-69,3.5-73.5c1.9-2.2,4.7-4,7.4-4.8c0.7-0.2,47.2-0.4,103.3-0.3l102.1,0.1L233.2,30.5z M196.8,146.1c11.6,3.2,20.8,10.9,25.9,21.4c3,6.2,3.8,9.5,4.1,17.1c0.2,5.5,0.1,7.2-0.8,10.9c-3.7,15.4-15.2,26.9-30.6,30.6c-3.7,0.9-5.5,1-11.2,0.9c-5.9-0.2-7.4-0.5-11.6-1.9c-10.8-3.6-18.9-10.7-24-21c-4.8-9.5-5.3-22.6-1.4-33.2c4.9-13.1,16.8-22.9,30.8-25.5C183.3,144.3,191.8,144.7,196.8,146.1z"/><path fill="#8c00ff" d="M34,43.3c-2.9,1.4-4.9,3.7-5.9,6.6c-1,2.9-1,22.2,0.1,24.6c1.3,3.1,3.3,5.2,6,6.5c2.5,1.2,3,1.2,13.5,1.2c12.1,0,12.9-0.2,16.2-3.1c3.5-3.1,3.8-4.2,3.8-17c0-12.8-0.3-14.1-4.1-17.3c-3-2.6-4.7-2.9-16.4-2.9C36.8,42,36.5,42,34,43.3z M61.3,48.6l1.7,1.9v11.3c0,16.6,0.8,15.8-15.8,15.8H35.9L34,76l-1.9-1.7L32,62.8c-0.2-11.3-0.2-11.5,1-13.2c2-3,2.5-3.1,15.1-2.9l11.5,0.2L61.3,48.6z"/><path fill="#8c00ff" d="M190.7,43.3c-12.8,2.7-20.6,9.3-20.6,17.4c0,5.4,3.5,10.1,10.5,13.7c5.7,3,10.2,4,18.4,4c6.2,0,7.5-0.2,11.6-1.4c5.6-1.7,8.7-3.4,12.2-6.5c3.2-2.9,4.7-5.5,5-9.1c0.8-7.1-6.4-14.2-17.4-17.3C205.5,42.6,195.5,42.2,190.7,43.3z M208.7,48c12,2.9,17.6,10.3,13.2,17.2c-3.8,6-13.9,9.5-25.6,8.8c-8-0.5-14.2-2.6-18.3-6.2c-2.3-2.1-3-3.1-3.5-5.7c-1.4-5.9,5.4-12.2,15.2-14.3C194.7,46.7,203.8,46.8,208.7,48z"/><path fill="#8c00ff" d="M28.5,105.5c-0.5,0.5-0.6,3.4-0.6,10.3c0,8.1,0.2,9.8,0.8,10.5c0.7,0.7,3.1,0.8,19,0.8c13.8,0,18.4-0.2,19.1-0.7c0.7-0.5,0.9-1.9,0.9-10.3c0-6.9-0.2-9.9-0.6-10.5c-0.6-0.6-3.6-0.7-19.3-0.7C33.9,104.9,28.9,105,28.5,105.5z M63,115.7v6.8H47.7H32.4v-6.8v-6.8h15.3H63V115.7z"/><path fill="#8c00ff" d="M81.5,105.2c-0.2,0.2-0.4,4.9-0.4,10.5c0,9.6,0.1,10.3,1,10.8c0.7,0.3,7.5,0.5,18.8,0.5c15.3,0,18-0.1,18.9-0.8c1.1-0.8,1.1-1,1.1-10.5c0-6.8-0.2-9.8-0.6-10.3c-0.5-0.5-5.5-0.6-19.5-0.6C90.3,104.9,81.6,105,81.5,105.2z M116.3,115.7v6.8l-15.4-0.1l-15.5-0.2l-0.2-6c0-3.3,0-6.3,0.1-6.7c0.2-0.5,3.4-0.7,15.6-0.7h15.3L116.3,115.7L116.3,115.7z"/><path fill="#8c00ff" d="M135,105.5c-0.5,0.5-0.6,3.4-0.6,10.3c0,9.5,0.1,9.7,1.1,10.5c1,0.7,3.6,0.8,19,0.8c13.5,0,18.1-0.2,18.8-0.7c0.7-0.5,0.9-1.9,0.9-10.5c0.1-5.4-0.1-10.1-0.3-10.4C173.5,104.6,135.8,104.7,135,105.5z M169.9,115.7v6.5l-15.4,0.2l-15.5,0.1V116c0-3.6,0.2-6.6,0.4-6.8c0.2-0.2,7.1-0.3,15.4-0.3l15.1,0.2V115.7z"/><path fill="#8c00ff" d="M188.5,105.7c-0.2,0.5-0.3,5.2-0.3,10.5c0,9.3,0.1,9.8,1,10.3c0.7,0.4,7,0.5,19.4,0.4c15.7-0.2,18.5-0.3,18.9-0.9c0.8-1.2,0.7-19.8-0.1-20.5c-0.5-0.5-5.5-0.6-19.6-0.6C191,104.9,188.8,105,188.5,105.7z M223.4,115.7v6.8h-15.3h-15.3v-6.8v-6.8h15.3h15.3V115.7z"/><path fill="#8c00ff" d="M28.5,140.7c-0.8,0.8-0.8,2.6,0,3.3c0.9,0.9,109.1,0.9,109.9,0c0.8-0.8,0.8-2.6,0-3.3C137.5,139.8,29.3,139.8,28.5,140.7z"/><path fill="#8c00ff" d="M28.5,158.8c-0.8,0.8-0.8,2.6,0,3.3c0.5,0.5,9.5,0.6,37.5,0.6c35.9,0,36.9,0,37.4-1c0.7-1.4,0.7-1.9-0.3-2.8c-0.7-0.7-4.8-0.8-37.4-0.8C37.9,158.2,28.9,158.3,28.5,158.8z"/><path fill="#8c00ff" d="M178.8,157.2c-0.5,0.5-0.6,3.5-0.6,10.8v10.2h-10.3c-8.1,0-10.4,0.2-10.8,0.7c-0.4,0.5-0.6,2.9-0.5,7.4l0.2,6.7l10.6,0.3l10.6,0.3l0.2,10.3c0.1,8.9,0.2,10.4,1,10.9c1.2,0.9,12.2,0.9,13.4,0c0.8-0.5,0.9-2,1-10.9l0.2-10.3l10.3-0.2c8.9-0.1,10.4-0.2,11-1c0.4-0.6,0.6-2.8,0.6-6.7c0-3.9-0.2-6.1-0.6-6.7c-0.6-0.8-2-0.9-11-1l-10.3-0.2l-0.1-10c0-5.5-0.2-10.3-0.4-10.7c-0.2-0.6-1.6-0.8-7-0.8C181.5,156.6,179.2,156.8,178.8,157.2z M189.1,171.2c0.1,8.9,0.2,10.4,1,10.9c0.6,0.5,3.6,0.7,10.8,0.7h10l-0.2,3.1l-0.2,3.2l-10.6,0.3l-10.6,0.3l-0.3,10.6l-0.3,10.6l-3.1,0.2l-3.2,0.2v-10c0-7.2-0.2-10.2-0.6-10.8c-0.6-0.8-2-0.9-11-1l-10.3-0.2l-0.2-3.2l-0.2-3.1h10.1c9.4,0,10.1-0.1,11.1-1c1-1,1-1.7,1-11.1v-10.1l3.2,0.2l3.1,0.2L189.1,171.2z"/></g></g></g>
</svg>