<?xml version="1.0" encoding="utf-8"?>
<!-- Svg Vector Icons : http://www.onlinewebfonts.com/icon -->
<!DOCTYPE svg PUBLIC "-//W3C//DTD SVG 1.1//EN" "http://www.w3.org/Graphics/SVG/1.1/DTD/svg11.dtd">
<svg version="1.1" xmlns="http://www.w3.org/2000/svg" xmlns:xlink="http://www.w3.org/1999/xlink" x="0px" y="0px" viewBox="0 0 256 256" enable-background="new 0 0 256 256" xml:space="preserve">
<metadata> Svg Vector Icons : http://www.onlinewebfonts.com/icon </metadata>
<g><g><g><path fill="#8c00ff" d="M238.2,12.4c-9.2,7.5-13,14.6-11.6,22c0.3,1.7,1.6,5.7,3,8.8c3.5,8.3,4.9,13.3,5.7,19.4c0.8,6.4,0.1,13.4-1.7,18.2l-1.2,3.1l-0.4-2.9c-0.8-5.6-5-11.3-9.5-13.3c-2.6-1.1-46.5-13.2-49.8-13.7c-3.3-0.5-10.2,0.5-14,2.1c-3.8,1.5-141.2,96.8-144.6,100.2c-3.5,3.5-4.8,9.4-3.2,13.9c0.9,2.4,48.3,70.8,50.8,73.2c3.4,3.3,10.2,4.5,14.6,2.4c3.4-1.6,140.6-97.1,143.4-99.8c2.9-2.9,5.8-7.6,7.2-11.6c0.7-2,1.5-8.8,2.7-22.1l1.6-19.2l2.4-2.7c5.9-6.6,8.5-16.6,7.2-28c-0.8-6.7-2.1-11.5-5.7-20.3c-1.6-4-3.1-8.2-3.3-9.4c-0.7-4.7,2.1-9.6,8.6-15c1.9-1.5,4-3.3,4.7-3.8c1.4-1.2,1.5-2.8,0.3-4C243.8,8.5,242.5,9,238.2,12.4z M196.5,66c12.7,3.5,23.7,6.7,24.5,7.1c2,1,3.6,2.9,4.6,5.4c0.7,1.7,0.8,3,0.5,6.7c-0.4,4.6-0.4,4.6-2.2,5.3c-1,0.4-3,0.9-4.3,1.1l-2.4,0.3v-2c0-4.2-4-9.8-8.4-11.8c-2.9-1.3-8.1-1.4-10.9,0c-7.6,3.5-10.8,11.9-7.2,18.9c2.6,5,7.2,7.9,12.4,7.9c4.8,0.1,8.1-1.6,11.8-6.2c1-1.1,1.7-1.5,3.3-1.5c1.2,0,3.3-0.3,4.6-0.8l2.6-0.8l-0.3,2c-0.2,1.1-0.8,8-1.4,15.3c-0.6,7.3-1.4,14.9-1.7,16.9c-0.7,4.3-3.1,9-6.1,12c-2.8,2.8-140.2,98.3-143,99.5c-2.6,1-5.3,0.5-7.3-1.4c-2.7-2.6-49.8-70.8-50.2-72.8c-0.6-2.6,0.2-5.1,2.3-7.1c2.7-2.5,140.5-98.1,142.8-99C167.2,58.2,169.6,58.5,196.5,66z M208.8,84.2c1.9,1.8,3,3.9,3,6c0,1.5-0.2,1.6-1.6,1.6c-0.9,0-4.5-0.8-7.9-1.6c-3.5-0.9-6.6-1.5-6.9-1.3c-0.8,0.4-0.6-0.8,0.3-2.6c1.5-2.8,3.8-3.9,8-3.6C206.7,82.8,207.6,83.1,208.8,84.2z M200.9,95.5c2.2,0.5,5.1,1.2,6.2,1.4c2,0.3,2.1,0.4,1.3,1.3c-1.4,1.3-7.3,1.6-9.6,0.4c-1.7-0.9-3.9-3.8-3.9-5.2c0-0.6,0.2-0.6,1,0.1C196.4,94.1,198.7,94.9,200.9,95.5z"/><path fill="#8c00ff" d="M111.2,106.6c-0.3,0.3-0.7,1.1-0.6,1.7c0,0.7,9.7,15.1,21.6,32.2c18.6,26.7,21.8,31,23.1,31.2c1.1,0.1,1.7-0.2,2.4-1.3c1.1-1.7,3.3,1.7-24.4-38.1c-16.3-23.4-18.3-26.1-19.7-26.3C112.6,105.9,111.6,106.2,111.2,106.6z"/><path fill="#8c00ff" d="M93.7,119c-0.6,0.6-1.1,1.4-1.1,1.8c0,0.4,9.7,14.7,21.5,31.7c14.7,21.2,21.9,31.1,22.9,31.4c1,0.4,1.6,0.3,2.4-0.5c0.6-0.5,1.1-1.4,1.1-1.8c0-1-41.5-60.8-43.3-62.6C95.5,117.6,95.1,117.6,93.7,119z"/><path fill="#8c00ff" d="M75.8,131.5c-0.6,0.6-1.1,1.3-1.1,1.6c0,0.7,3.4,5.6,25.8,38c12.2,17.6,17.8,25.2,18.7,25.5c1.6,0.4,3.5-1.2,3.3-2.8c-0.3-1.2-41.9-61.6-43.3-62.7C77.9,130.1,77,130.3,75.8,131.5z"/><path fill="#8c00ff" d="M57.8,143.7c-0.4,0.5-0.5,1.5-0.4,2.3c0.3,2.1,42.2,62.2,43.8,62.9c1.5,0.7,3.4-0.8,3.4-2.6c0-0.7-9.7-15.1-21.7-32.2c-18.1-26-21.8-31-23-31.2C59.2,142.9,58.2,143.3,57.8,143.7z"/><path fill="#8c00ff" d="M40,156.1c-0.4,0.4-0.7,1.2-0.7,1.9c0,1.4,42.6,63,43.9,63.5c0.5,0.2,1.5-0.1,2.2-0.5c1-0.7,1.3-1.2,1.1-2.3c-0.2-1.2-40-59.2-42.8-62.3C42.8,155.3,40.9,155.2,40,156.1z"/></g></g></g>
</svg>