<?xml version="1.0" encoding="utf-8"?>
<!-- Svg Vector Icons : http://www.onlinewebfonts.com/icon -->
<!DOCTYPE svg PUBLIC "-//W3C//DTD SVG 1.1//EN" "http://www.w3.org/Graphics/SVG/1.1/DTD/svg11.dtd">
<svg version="1.1" xmlns="http://www.w3.org/2000/svg" xmlns:xlink="http://www.w3.org/1999/xlink" x="0px" y="0px" viewBox="0 0 256 256" enable-background="new 0 0 256 256" xml:space="preserve">
<metadata> Svg Vector Icons : http://www.onlinewebfonts.com/icon </metadata>
<g><g><path fill="#8c00ff" d="M231.1,128V99.2c0-16.4-13.3-29.9-29.6-30.2V54.4c0-16.3-13.6-29.7-30.2-29.7H40.2C23.6,24.7,10,38.1,10,54.4c0,0.1,0,0.3,0,0.4l0,0v146.2c0,16.6,13.6,30.2,30.2,30.2h160.8c16.6,0,30.2-13.6,30.2-30.2v-28.9c8.2-0.1,14.9-6.9,14.9-15.1v-14C246,134.9,239.3,128.1,231.1,128z M230.9,157.1L230.9,157.1l-43.6,0l0,0v-14l0,0h43.6l0,0V157.1L230.9,157.1z M29.5,44.2c2.9-2.8,6.7-4.4,10.7-4.4h131.1c4,0,7.9,1.6,10.7,4.4c2.8,2.8,4.4,6.4,4.4,10.2V69H40.2c-4,0-7.9-1.6-10.7-4.4c-2.8-2.8-4.4-6.4-4.4-10.2C25.1,50.6,26.6,47,29.5,44.2z M211.6,211.7c-2.9,2.9-6.6,4.5-10.6,4.5H40.2c-4,0-7.8-1.6-10.6-4.5c-2.9-2.9-4.5-6.6-4.5-10.6v-121c4.5,2.6,9.6,4,15.1,4l0,0h0l0,0h131.1h29.6c4,0,7.8,1.6,10.6,4.5c2.9,2.9,4.5,6.6,4.5,10.6V128h-28.8c-8.3,0-15.1,6.8-15.1,15.1v14c0,8.3,6.8,15.1,15.1,15.1H216v28.9C216,205.1,214.5,208.9,211.6,211.7z"/></g></g>
</svg>